<svg width="32" height="32" viewBox="0 0 32 32" fill="none" xmlns="http://www.w3.org/2000/svg">
  <!-- Background circle -->
  <circle cx="16" cy="16" r="16" fill="#22c55e"/>
  
  <!-- Sprout/Plant icon -->
  <path d="M16 6C16 6 12 10 12 14C12 16.5 13.5 18 16 18C18.5 18 20 16.5 20 14C20 10 16 6 16 6Z" fill="white"/>
  
  <!-- Stem -->
  <rect x="15" y="18" width="2" height="8" fill="white"/>
  
  <!-- Leaves -->
  <path d="M10 20C8 20 7 22 8 24C9 26 11 25 12 23" stroke="white" stroke-width="1.5" fill="none"/>
  <path d="M22 20C24 20 25 22 24 24C23 26 21 25 20 23" stroke="white" stroke-width="1.5" fill="none"/>
  
  <!-- Small dots for detail -->
  <circle cx="14" cy="12" r="1" fill="#22c55e"/>
  <circle cx="18" cy="12" r="1" fill="#22c55e"/>
</svg>
